<svg width="121" height="48" viewBox="0 0 121 48" fill="none" xmlns="http://www.w3.org/2000/svg">
<path opacity="0.9" d="M31.2153 10.7998H0.415344L4.81534 19.5998H31.2153C36.0755 19.5998 40.0153 23.5396 40.0153 28.3997C40.0153 33.2598 36.0755 37.1996 31.2153 37.1996C38.5055 37.1996 44.4153 31.2898 44.4153 23.9997C44.4153 16.7096 38.5055 10.7998 31.2153 10.7998Z" fill="#099250"/>
<path opacity="0.3" d="M21.1988 34.7676C19.736 31.8421 21.8634 28.3999 25.1343 28.3999H31.215C33.645 28.3999 35.615 30.3698 35.615 32.7999C35.615 35.2299 33.645 37.1998 31.215 37.1998H25.1343C23.4677 37.1998 21.9442 36.2582 21.1988 34.7676V34.7676Z" fill="#099250"/>
<path opacity="0.6" d="M31.2161 19.6001H9.21613L13.6161 28.4H31.2161C33.6462 28.4 35.6161 30.37 35.6161 32.8C35.6161 35.2301 33.6462 37.2 31.2161 37.2C36.0762 37.2 40.0161 33.2601 40.0161 28.4C40.0161 23.54 36.0762 19.6001 31.2161 19.6001Z" fill="#099250"/>
<path d="M120.585 31.992C120.313 32.104 119.985 32.232 119.601 32.376C119.217 32.52 118.801 32.632 118.353 32.712C117.921 32.808 117.481 32.856 117.033 32.856C116.441 32.856 115.897 32.752 115.401 32.544C114.905 32.336 114.505 32.008 114.201 31.56C113.913 31.096 113.769 30.496 113.769 29.76V22.536H112.113V20.064H113.769V15.984H116.985V20.064H119.625V22.536H116.985V28.68C117.001 29.112 117.121 29.424 117.345 29.616C117.569 29.808 117.849 29.904 118.185 29.904C118.521 29.904 118.849 29.848 119.169 29.736C119.489 29.624 119.745 29.528 119.937 29.448L120.585 31.992Z" fill="#F5F5F5"/>
<path d="M108.258 32.64L104.586 27.216L102.882 28.896V32.64H99.6658V15.12H102.882V25.728L107.946 20.088H111.354L106.674 25.416L111.69 32.64H108.258Z" fill="#F5F5F5"/>
<path d="M91.975 32.88C90.951 32.88 90.031 32.712 89.215 32.376C88.399 32.024 87.703 31.544 87.127 30.936C86.551 30.312 86.103 29.608 85.783 28.824C85.479 28.04 85.327 27.216 85.327 26.352C85.327 25.168 85.591 24.088 86.119 23.112C86.663 22.12 87.431 21.328 88.423 20.736C89.415 20.144 90.591 19.848 91.951 19.848C93.311 19.848 94.479 20.144 95.455 20.736C96.431 21.328 97.159 22.104 97.639 23.064L94.495 24.024C94.223 23.56 93.863 23.208 93.415 22.968C92.967 22.712 92.471 22.584 91.927 22.584C91.319 22.584 90.759 22.744 90.247 23.064C89.751 23.368 89.359 23.808 89.071 24.384C88.783 24.944 88.639 25.6 88.639 26.352C88.639 27.088 88.783 27.744 89.071 28.32C89.375 28.88 89.775 29.328 90.271 29.664C90.767 29.984 91.319 30.144 91.927 30.144C92.311 30.144 92.671 30.08 93.007 29.952C93.359 29.824 93.671 29.648 93.943 29.424C94.215 29.2 94.415 28.944 94.543 28.656L97.687 29.616C97.399 30.24 96.975 30.8 96.415 31.296C95.871 31.792 95.223 32.184 94.471 32.472C93.735 32.744 92.903 32.88 91.975 32.88Z" fill="#F5F5F5"/>
<path d="M71.163 27.936V20.064H74.379V27.24C74.379 28.2 74.555 28.928 74.907 29.424C75.259 29.904 75.779 30.144 76.467 30.144C76.883 30.144 77.291 30.064 77.691 29.904C78.107 29.728 78.483 29.472 78.819 29.136C79.171 28.8 79.467 28.376 79.707 27.864V20.064H82.923V29.04C82.923 29.376 82.979 29.616 83.091 29.76C83.219 29.904 83.419 29.992 83.691 30.024V32.64C83.371 32.688 83.099 32.72 82.875 32.736C82.667 32.768 82.475 32.784 82.299 32.784C81.723 32.784 81.251 32.656 80.883 32.4C80.531 32.128 80.323 31.76 80.259 31.296L80.187 30.288C79.627 31.136 78.907 31.784 78.027 32.232C77.147 32.664 76.179 32.88 75.123 32.88C73.827 32.88 72.843 32.464 72.171 31.632C71.499 30.784 71.163 29.552 71.163 27.936Z" fill="#F5F5F5"/>
<path d="M54.4153 32.64V15.6H60.6073C62.4633 15.6 64.0153 15.984 65.2633 16.752C66.5113 17.504 67.4473 18.528 68.0713 19.824C68.6953 21.104 69.0073 22.528 69.0073 24.096C69.0073 25.824 68.6633 27.328 67.9753 28.608C67.2873 29.888 66.3113 30.88 65.0473 31.584C63.7993 32.288 62.3193 32.64 60.6073 32.64H54.4153ZM65.6713 24.096C65.6713 22.992 65.4713 22.024 65.0713 21.192C64.6713 20.344 64.0953 19.688 63.3433 19.224C62.5913 18.744 61.6793 18.504 60.6073 18.504H57.7273V29.736H60.6073C61.6953 29.736 62.6153 29.496 63.3673 29.016C64.1193 28.52 64.6873 27.848 65.0713 27C65.4713 26.136 65.6713 25.168 65.6713 24.096Z" fill="#F5F5F5"/>
</svg>
