<svg width="121" height="48" viewBox="0 0 121 48" fill="none" xmlns="http://www.w3.org/2000/svg">
<path d="M31.2153 10.7998H0.415283L4.81528 19.5997H31.2153C36.0754 19.5997 40.0153 23.5396 40.0153 28.3997C40.0153 33.2598 36.0754 37.1996 31.2153 37.1996C38.5054 37.1996 44.4153 31.2898 44.4153 23.9997C44.4153 16.7096 38.5054 10.7998 31.2153 10.7998Z" fill="#363738"/>
<path opacity="0.3" d="M21.1988 34.7676C19.736 31.8421 21.8634 28.3999 25.1342 28.3999H31.2149C33.645 28.3999 35.6149 30.3698 35.6149 32.7999C35.6149 35.2299 33.645 37.1998 31.2149 37.1998H25.1342C23.4676 37.1998 21.9441 36.2582 21.1988 34.7676V34.7676Z" fill="#363738"/>
<path opacity="0.6" d="M31.2161 19.6001H9.21606L13.6161 28.4H31.2161C33.6461 28.4 35.6161 30.37 35.6161 32.8C35.6161 35.2301 33.6461 37.2 31.2161 37.2C36.0762 37.2 40.0161 33.2601 40.0161 28.4C40.0161 23.54 36.0762 19.6001 31.2161 19.6001Z" fill="#363738"/>
<path d="M120.585 31.992C120.313 32.104 119.985 32.232 119.601 32.376C119.217 32.52 118.801 32.632 118.353 32.712C117.921 32.808 117.481 32.856 117.033 32.856C116.441 32.856 115.897 32.752 115.401 32.544C114.905 32.336 114.505 32.008 114.201 31.56C113.913 31.096 113.769 30.496 113.769 29.76V22.536H112.113V20.064H113.769V15.984H116.985V20.064H119.625V22.536H116.985V28.68C117.001 29.112 117.121 29.424 117.345 29.616C117.569 29.808 117.849 29.904 118.185 29.904C118.521 29.904 118.849 29.848 119.169 29.736C119.489 29.624 119.745 29.528 119.937 29.448L120.585 31.992Z" fill="black"/>
<path d="M108.258 32.64L104.586 27.216L102.882 28.896V32.64H99.6658V15.12H102.882V25.728L107.946 20.088H111.354L106.674 25.416L111.69 32.64H108.258Z" fill="black"/>
<path d="M91.9749 32.88C90.9509 32.88 90.0309 32.712 89.2149 32.376C88.3989 32.024 87.7029 31.544 87.1269 30.936C86.5509 30.312 86.1029 29.608 85.7829 28.824C85.4789 28.04 85.3269 27.216 85.3269 26.352C85.3269 25.168 85.5909 24.088 86.1189 23.112C86.6629 22.12 87.4309 21.328 88.4229 20.736C89.4149 20.144 90.5909 19.848 91.9509 19.848C93.3109 19.848 94.4789 20.144 95.4549 20.736C96.4309 21.328 97.1589 22.104 97.6389 23.064L94.4949 24.024C94.2229 23.56 93.8629 23.208 93.4149 22.968C92.9669 22.712 92.4709 22.584 91.9269 22.584C91.3189 22.584 90.7589 22.744 90.2469 23.064C89.7509 23.368 89.3589 23.808 89.0709 24.384C88.7829 24.944 88.6389 25.6 88.6389 26.352C88.6389 27.088 88.7829 27.744 89.0709 28.32C89.3749 28.88 89.7749 29.328 90.2709 29.664C90.7669 29.984 91.3189 30.144 91.9269 30.144C92.3109 30.144 92.6709 30.08 93.0069 29.952C93.3589 29.824 93.6709 29.648 93.9429 29.424C94.2149 29.2 94.4149 28.944 94.5429 28.656L97.6869 29.616C97.3989 30.24 96.9749 30.8 96.4149 31.296C95.8709 31.792 95.2229 32.184 94.4709 32.472C93.7349 32.744 92.9029 32.88 91.9749 32.88Z" fill="black"/>
<path d="M71.163 27.936V20.064H74.379V27.24C74.379 28.2 74.555 28.928 74.907 29.424C75.259 29.904 75.779 30.144 76.467 30.144C76.883 30.144 77.291 30.064 77.691 29.904C78.107 29.728 78.483 29.472 78.819 29.136C79.171 28.8 79.467 28.376 79.707 27.864V20.064H82.923V29.04C82.923 29.376 82.979 29.616 83.091 29.76C83.219 29.904 83.419 29.992 83.691 30.024V32.64C83.371 32.688 83.099 32.72 82.875 32.736C82.667 32.768 82.475 32.784 82.299 32.784C81.723 32.784 81.251 32.656 80.883 32.4C80.531 32.128 80.323 31.76 80.259 31.296L80.187 30.288C79.627 31.136 78.907 31.784 78.027 32.232C77.147 32.664 76.179 32.88 75.123 32.88C73.827 32.88 72.843 32.464 72.171 31.632C71.499 30.784 71.163 29.552 71.163 27.936Z" fill="black"/>
<path d="M54.4153 32.64V15.6H60.6073C62.4633 15.6 64.0153 15.984 65.2633 16.752C66.5113 17.504 67.4473 18.528 68.0713 19.824C68.6953 21.104 69.0073 22.528 69.0073 24.096C69.0073 25.824 68.6633 27.328 67.9753 28.608C67.2873 29.888 66.3113 30.88 65.0473 31.584C63.7993 32.288 62.3193 32.64 60.6073 32.64H54.4153ZM65.6713 24.096C65.6713 22.992 65.4713 22.024 65.0713 21.192C64.6713 20.344 64.0953 19.688 63.3433 19.224C62.5913 18.744 61.6793 18.504 60.6073 18.504H57.7273V29.736H60.6073C61.6953 29.736 62.6153 29.496 63.3673 29.016C64.1193 28.52 64.6873 27.848 65.0713 27C65.4713 26.136 65.6713 25.168 65.6713 24.096Z" fill="black"/>
</svg>
