<svg width="64" height="64" viewBox="0 0 64 64" fill="none" xmlns="http://www.w3.org/2000/svg">
<rect width="64" height="64" rx="10" fill="url(#paint0_linear_364_2839)"/>
<path opacity="0.9" d="M40.8 18.7998H10L14.4 27.5998H40.8C45.6601 27.5998 49.6 31.5396 49.6 36.3997C49.6 41.2598 45.6601 45.1996 40.8 45.1996C48.0902 45.1996 54 39.2898 54 31.9997C54 24.7096 48.0902 18.7998 40.8 18.7998Z" fill="#FAFAFA"/>
<path opacity="0.3" d="M30.7835 42.7676C29.3207 39.8421 31.4481 36.3999 34.7189 36.3999H40.7996C43.2297 36.3999 45.1996 38.3698 45.1996 40.7999C45.1996 43.2299 43.2297 45.1998 40.7996 45.1998H34.7189C33.0524 45.1998 31.5288 44.2582 30.7835 42.7676V42.7676Z" fill="white"/>
<path opacity="0.6" d="M40.8008 27.6001H18.8008L23.2008 36.4H40.8008C43.2308 36.4 45.2008 38.37 45.2008 40.8C45.2008 43.2301 43.2308 45.2 40.8008 45.2C45.6609 45.2 49.6008 41.2601 49.6008 36.4C49.6008 31.54 45.6609 27.6001 40.8008 27.6001Z" fill="white"/>
<defs>
<linearGradient id="paint0_linear_364_2839" x1="32" y1="0" x2="32" y2="64" gradientUnits="userSpaceOnUse">
<stop stop-color="#363738"/>
<stop offset="1"/>
</linearGradient>
</defs>
</svg>
